<svg xmlns="http://www.w3.org/2000/svg" viewBox="0 0 1005 1005" preserveAspectRatio="xMidYMid meet">
  <defs>
    <style>
      .cls-1 { fill: #fff; }
      .cls-2 { fill: none; stroke: #F6C242; stroke-miterlimit: 196.36; stroke-width: 14.73px; }
      .cls-3 { fill: #F6C242; }
    </style>
    <!-- Radial gradient for glow -->
    <radialGradient id="glowGradient" cx="50%" cy="50%" r="50%">
      <stop offset="0%" stop-color="#F6C242" stop-opacity="1"/>
      <stop offset="70%" stop-color="#F6C242" stop-opacity="0.2"/>
      <stop offset="100%" stop-color="#F6C242" stop-opacity="0"/>
    </radialGradient>
  </defs>

  <!-- Centered content -->
  <g transform="translate(250,250)">
    <!-- Glow circle using radial gradient -->
    <circle cx="252.82" cy="252.82" r="500" fill="url(#glowGradient)"/>

    <!-- Subtle stroke ring -->
    <!-- <circle class="cls-2" cx="252.82" cy="252.82" r="245.45" opacity="0.85"/> -->

    <!-- Pin body -->
    <path class="cls-3" d="M252.82,7.36C130.09,7.36,31.91,105.55,31.91,228.27c0,147.27,220.91,319.09,220.91,319.09,0,0,220.91-171.82,220.91-319.09,0-122.73-98.18-220.91-220.91-220.91Z"/>

    <!-- White circle inside pin -->
    <circle class="cls-1" cx="252.82" cy="228.27" r="171.82"/>

    <!-- Map pin Inspector middle -->
    <path class="cls-3" d="M251.7,244.47c-25.79.94-50.44-22.91-54.11-44.46-1.99-11.71-1.32-23.87-2.17-35.8-.18-2.56-1.22-5.36-2.71-7.46-3.83-5.38-8.99-9.98-11.92-15.76-1.76-3.47-1.71-9.2-.07-12.82,6.38-14.12,18.44-23.13,31.43-30.52,16.74-9.52,34.78-14.89,54.23-11.33,23.25,4.26,43.5,14.07,56.52,34.9,6.01,9.61,5.39,21.14-2.56,29-6.96,6.88-7.83,14.08-7.24,23.05,1.47,22.47-6.69,41.42-23.34,56.52-10.17,9.22-24.76,14.6-38.05,14.68ZM216.26,180.56c-.05.76-.16,1.52-.15,2.28.34,13.57,4.62,25.44,17.05,32.18,13.24,7.18,26.74,7.56,40.03-1.1,15.35-10,18-25.39,18.91-41.76.26-4.66-2.06-5.64-6.29-5.58-18.5.3-37,.31-55.5.44q-13.56.09-14.07,13.54ZM252.49,145.55s0-.08,0-.13c11.24,0,22.49.18,33.72-.1,3.52-.09,7.24-.86,10.47-2.25,7.55-3.26,9.15-9.49,3.44-15.41-12.71-13.18-29.26-19.5-46.88-18.7-18.15.83-34.41,8.99-47.94,21.71-3.21,3.01-3.52,6.51-.17,8.66,4.3,2.75,9.33,5.56,14.23,5.95,10.98.88,22.08.27,33.13.27Z"/>
    <path class="cls-3" d="M314.28,348.35c-4.15,12.25-14.57,18.8-26.3,22.55-3.51,1.12-8.49-.11-12.05-1.83-12.3-5.93-19.05-15.89-19.21-29.85-.1-8.96-.41-17.93-.15-26.88.25-8.56,6.22-15.1,15.75-15.95,9.62-.86,19.41-.77,29.05-.06,8.55.63,13.39,7.05,13.92,16.79.28,5.13.05,10.29.05,15.44"/>
    <path class="cls-3" d="M160.82,318.59c-.21,3.41-.13,6.86-.71,10.2-1.15,6.72-4.14,9.35-10.09,9.47-6.74.14-10.16-2.36-11.37-9.4-2.96-17.19-.46-33.44,9.96-47.82,4.79-6.61,9.63-13.34,15.41-19.03,13.4-13.18,43.71-16.69,60.14-7.62,5.55,3.06,8.14,8.32,6.76,13.69-1.43,5.54-6.26,8.36-13.49,8.02-6.08-.29-12.19-.96-18.23-.59-19.47,1.18-40.45,19.81-38.38,43.09Z"/>
    <path class="cls-3" d="M283.99,276.04c-4.83-.45-9.9-2.8-9.98-7.73-.06-4.15,2.8-8.63,5.25-12.4,1.11-1.71,4.24-2.52,6.6-2.92,21.3-3.68,41.5-1.36,58.82,12.74,18.51,15.07,24.88,35.27,23.19,58.5-.12,1.71-.48,3.39-.72,5.09-.88,6.45-4.88,10.03-11.07,9.92-5.77-.1-10.35-4.28-10.82-10.46-.45-5.88-.41-11.8-.52-17.71-.41-20.86-21.11-35.78-37.92-35.44-3.23.07-6.47,0-9.7,0"/>
</g>
</svg>
