<svg xmlns="http://www.w3.org/2000/svg" 
     viewBox="-300 -300 1100 1100" 
     width="500" height="500">
  <defs>
    <style>
      .cls-1 { fill: #fff; }
      .cls-2 { fill: none; stroke: #F43F5E; stroke-miterlimit: 196.36; stroke-width: 14.73px; }
      .cls-3 { fill: #F43F5E; }
    </style>
    <filter id="glow" x="-100%" y="-100%" width="300%" height="300%">
      <feGaussianBlur stdDeviation="50" result="blur"/>
      <feMerge>
        <feMergeNode in="blur"/>
        <feMergeNode in="SourceGraphic"/>
      </feMerge>
    </filter>
  </defs>

  <g>
    <!-- Animated pulse -->
    <circle class="cls-2" cx="252.82" cy="252.82" r="245.45">
      <animate attributeName="r" values="245.45;500;245.45" dur="1.8s" repeatCount="indefinite"/>
      <animate attributeName="opacity" values="0.9;0.2;0" dur="1.8s" repeatCount="indefinite"/>
    </circle>

    <!-- Pin body with glow -->
    <path class="cls-3" d="M252.82,7.36C130.09,7.36,31.91,105.55,31.91,228.27c0,147.27,220.91,319.09,220.91,319.09,0,0,220.91-171.82,220.91-319.09,0-122.73-98.18-220.91-220.91-220.91Z" filter="url(#glow)"/>

    <!-- White circle inside pin -->
    <circle class="cls-1" cx="252.82" cy="228.27" r="171.82"/>

    <!-- Vehicle / car inside -->
    <path class="cls-3" d="M142.57,242.19c.09-3.38-.52-6.89-1.49-10.15-2.53-8.51,3.54-17.22,12.37-16.81,3.52.16,5.12-1.15,6.16-4.13,5.61-16.1,11.34-32.16,16.81-48.31.99-2.91,1.21-6.17,1.31-9.29.52-16.02,10.73-29.88,26.22-34.5,4.94-1.47,10.27-2.19,15.43-2.23,23.22-.17,46.45.24,69.67.02,14.47-.14,23.88,7.54,30.94,18.9,4.5,7.24,6.62,15.21,5.51,24.01-.33,2.66.86,5.96,2.36,8.34,8.46,13.47,11.04,28.86,14.54,43.91.89,3.83,2.42,5.03,6,4.37,1.72-.31,3.45-.63,5.18-.71,7.23-.32,13,4.79,11.22,11.65-3.82,14.78-.32,29.41-.58,44.08-.2,11.5.96,23.22-4.02,34.01-8.52,18.45-23.22,29.51-43.16,32.57-5.25.81-11.08-1.96-16.62-3.2-4.34-.97-8.64-2.99-12.97-3.04-23.76-.31-47.52-.28-71.28-.04-3.44.03-7.27,1.13-10.23,2.89-12.57,7.45-27.56,7.19-39.26-1.85-6.57-5.08-13.17-10.4-18.55-16.65-6.03-7-7.09-16.09-6.81-25.21.13-4.19.02-8.39.02-12.58M323.2,312.65c2.55,0,5.24-.38,7.62-1.24,8.9-3.23,10.9-10.83,11.91-19.16.49-4.08-1.2-4.96-4.72-4.59-4.67.5-9.36,1.07-14.05,1.2-7.12.2-10.8-3.23-11.39-10.12-.41-4.82,3.95-9.23,10.27-9.63,5.03-.33,10.11-.03,15.17.18,2.89.12,4.17-.91,4.1-3.89-.13-5.06.03-10.13-.12-15.19-.24-8.21-1.07-8.99-9.06-8.96-54.99.15-109.99.27-164.98.61-1.51,0-4.1,2.14-4.31,3.57-.92,6.01-1.11,12.13-1.61,18.2-.38,4.64,1.74,5.91,6.24,5.75,5.88-.21,11.89-.06,17.66.95,4.87.85,6.95,5.68,5.97,11.18-.91,5.11-3.73,7.42-9.01,7.41-5.24,0-10.48.16-15.72-.06-3.83-.16-5.46,1.37-5.36,5.16.28,11.22,5.88,19.88,21.03,19.63,23.21-.39,46.43-.1,69.64-.1M323.34,221.8c0-1.55.22-2.46-.03-3.22-4.12-12.39-8.46-24.71-12.39-37.16-1.45-4.62-4.23-5.4-8.56-5.38-33.87.18-67.74.27-101.6.04-5.4-.04-7.94,1.99-9.46,6.79-3.09,9.79-6.24,19.57-9.73,29.22-3.73,10.31-3.92,10.46,7.29,10.48,39.96.05,79.93-.04,119.89-.14,4.8-.01,9.61-.41,14.6-.64ZM299.24,155.3c5.9-.19,7.89-3.53,5.63-9.1-2.63-6.51-8.32-8.2-14.44-8.35-9.05-.22-18.12.15-27.17.25-3.77.04-5.46,1.93-4.89,5.65.45,2.9,1.4,5.76,1.52,8.66.12,2.8,1.21,3.62,3.81,3.57,5.92-.1,11.85-.03,17.77-.03M219.7,156.35v-.09c3.66,0,7.31,0,10.97,0,14.78,0,12.24,1.25,12.11-13.1-.03-3.6-1.69-5.02-5.04-5.12-7.13-.21-14.28-.82-21.4-.6-10.44.31-16.39,5.03-19.01,14.03-.95,3.28-.22,4.99,3.55,4.91,6.27-.12,12.54-.03,18.81-.03Z"/>
    <path class="cls-3" d="M255.14,288.49c-10.28,0-20.57.1-30.85-.06-3.28-.05-6.63-.43-9.8-1.24-4.96-1.27-8.5-5.88-8.34-10.1.17-4.36,4.47-8.81,9.58-9.69,1.7-.3,3.48-.26,5.22-.25,20.23.02,40.45-.03,60.68.18,3.59.04,7.27.82,10.73,1.86,5.32,1.59,7.79,6.13,7.01,11.87-.62,4.61-4,7.55-9.7,7.64-11.5.19-23.01.06-34.52.06,0-.08,0-.16,0-.25Z"/>
  </g>
</svg>
